<?xml version="1.0" encoding="UTF-8"?><!DOCTYPE svg PUBLIC "-//W3C//DTD SVG 1.1//EN" "http://www.w3.org/Graphics/SVG/1.1/DTD/svg11.dtd"><svg xmlns="http://www.w3.org/2000/svg" xmlns:xlink="http://www.w3.org/1999/xlink" height="512px" id="Illustrator_1_" version="1.1" viewBox="0 0 512 512" width="512px" xml:space="preserve"><path fill="#FFAA2B" d="M6.998 11.998h499.004v486.004H6.998z" id="Frame_1_"/><path fill="#3B3323" d="M45.008 51.016h421.987v407.969H45.008z" id="Background_1_"/><path d="M364 148c.997.664-28 31-28 31l37.387 29.456L339 234l-86-83-41 10-26 83-47 113 144 102h184V231s-103.997-83.664-103-83z" id="Shadow2_1_" opacity="0.302"/><path d="M45.008 51.001h421.987v13.998H45.008z" id="Shadow_2_" opacity="0.302"/><g fill="#FFAA2B" id="Ai"><path d="M196.007 298.553l-17.719 58.35H139.49l65.987-205.904h47.963l66.904 205.904h-40.326l-18.635-58.35h-65.376zm58.961-28.411l-16.191-50.712c-3.971-12.525-7.332-26.578-10.387-38.493h-.611c-3.055 11.915-6.11 26.272-9.776 38.493l-15.886 50.712h52.851z"/><path d="M375.329 166.578c0 11.303-8.248 20.163-21.385 20.163-12.525 0-20.773-8.859-20.773-20.163 0-11.609 8.554-20.468 21.079-20.468 12.831 0 20.773 8.859 21.079 20.468zM335.31 356.902V208.125h37.881v148.777H335.31z"/></g><metadata><rdf:RDF xmlns:rdf="http://www.w3.org/1999/02/22-rdf-syntax-ns#" xmlns:rdfs="http://www.w3.org/2000/01/rdf-schema#" xmlns:dc="http://purl.org/dc/elements/1.1/"><rdf:Description about="https://iconscout.com/legal#licenses" dc:title="adobe,design,illustrator" dc:description="adobe,design,illustrator" dc:publisher="Iconscout" dc:date="2017-09-15" dc:format="image/svg+xml" dc:language="en"><dc:creator><rdf:Bag><rdf:li>Graphiqa Stock</rdf:li></rdf:Bag></dc:creator></rdf:Description></rdf:RDF></metadata></svg>