<svg xmlns="http://www.w3.org/2000/svg" width="307.691" height="300" viewBox="0 0 307.691 300"><defs><radialGradient id="a" cx="117.022" cy="207.973" r="220.369" gradientTransform="matrix(.973 0 0 .942 2.515 3.053)" gradientUnits="userSpaceOnUse"><stop offset="0" stop-color="#4b2d4f" stop-opacity=".98"/><stop offset="1" stop-color="#180024"/></radialGradient></defs><g data-name="adobe premiere-cc" transform="translate(0 -130.746)"><path fill="url(#a)" d="M24.8,155.549H306.854V429.908H24.8Z" data-name="Path 64" transform="translate(-11.983 -11.983)"/><path fill="#e579ff" d="M12.82,143.566H294.871V417.925H12.82ZM0,430.746H307.692v-300H0ZM184.615,257.412c0-1.539,0-5.256-.641-12.436,0-1.025.128-1.282,1.026-1.666a133.119,133.119,0,0,1,46.923-8.846c1.025,0,1.538.256,1.538,1.282v18.59c0,1.026-.385,1.282-1.41,1.282-8.077-.385-19.743.641-24.231,2.564v80.77c0,1.025-.385,1.538-1.539,1.538H186.153c-1.026,0-1.539-.385-1.539-1.538V257.412Zm-82.051,11.667c2.948.256,5.256.256,10.385.256,15,0,29.1-5.256,29.1-25.641,0-16.282-10-24.487-27.18-24.487-5.128,0-10,.256-12.308.385v49.487ZM79.872,201c0-.9.256-1.539,1.282-1.539,8.205-.385,20.256-.641,32.949-.641,35.513,0,51.025,19.487,51.025,44.487,0,32.564-23.59,46.538-52.564,46.538-4.872,0-6.539-.256-10-.256v49.231c0,1.025-.385,1.538-1.539,1.538H81.282c-1.025,0-1.539-.385-1.539-1.538V201h.129Z" data-name="Path 65"/></g></svg>