<svg width="1023" height="212" viewBox="0 0 1023 212" fill="none" xmlns="http://www.w3.org/2000/svg">
<path d="M235.178 160.008C232.626 159.188 231.35 157.957 231.35 156.316C234.494 153.172 236.659 149.868 237.844 146.404C238.482 144.581 238.96 142.189 239.279 139.227C239.598 136.219 239.735 133.029 239.689 129.656C239.644 126.238 239.416 123.003 239.006 119.949C238.596 116.85 237.935 114.344 237.023 112.43C236.294 110.835 235.542 109.581 234.768 108.67C234.038 107.713 233.423 107.007 232.922 106.551C231.919 105.639 231.919 104.751 232.922 103.885C233.423 103.429 234.038 102.768 234.768 101.902C235.542 101.036 236.294 99.8288 237.023 98.2793C237.798 96.6842 238.413 94.2005 238.869 90.8281C239.37 87.319 239.621 82.8301 239.621 77.3613C239.621 71.7559 239.029 67.2669 237.844 63.8945C236.659 60.5221 234.494 57.3092 231.35 54.2559L231.623 53.2305C231.851 52.5924 232.557 51.9316 233.742 51.248C234.927 50.5645 236.317 50.2227 237.912 50.2227C239.553 50.2227 240.988 50.4961 242.219 51.043C245.363 52.3646 247.665 54.4837 249.123 57.4004C252.222 52.6152 255.982 50.2227 260.402 50.2227C261.678 50.2227 262.818 50.3594 263.82 50.6328C266.327 51.362 267.58 52.5697 267.58 54.2559C263.752 58.2207 261.337 62.6185 260.334 67.4492L279.338 105.867L297.863 68.9531C296.952 63.5299 294.445 58.6309 290.344 54.2559C290.48 53.39 291.05 52.5241 292.053 51.6582C292.554 51.248 293.283 50.9062 294.24 50.6328C295.425 50.2682 296.929 50.1315 298.752 50.2227C300.575 50.2682 302.512 51.0885 304.562 52.6836C305.611 53.5039 306.454 54.3242 307.092 55.1445C307.73 55.9193 308.322 56.6712 308.869 57.4004C311.695 52.6152 315.204 50.2227 319.396 50.2227C320.673 50.2227 321.789 50.3594 322.746 50.6328C325.298 51.4076 326.574 52.6152 326.574 54.2559C323.384 57.3548 321.219 60.5677 320.08 63.8945C319.488 65.6263 319.032 67.9277 318.713 70.7988C318.394 73.6243 318.234 76.6549 318.234 79.8906C318.28 83.0807 318.462 86.1341 318.781 89.0508C319.1 91.9674 319.579 94.3828 320.217 96.2969C320.764 97.9375 321.379 99.3047 322.062 100.398C322.792 101.629 323.521 102.563 324.25 103.201C325.025 103.839 325.526 104.386 325.754 104.842C326.027 105.298 325.777 105.867 325.002 106.551C324.501 107.007 323.885 107.713 323.156 108.67C322.473 109.581 321.743 110.835 320.969 112.43C320.148 114.116 319.51 116.554 319.055 119.744C318.553 123.162 318.303 127.537 318.303 132.869C318.303 138.383 318.895 142.918 320.08 146.473C321.265 149.982 323.43 153.263 326.574 156.316L326.301 157.342C326.118 158.025 325.435 158.709 324.25 159.393C323.658 159.712 322.769 160.008 321.584 160.281C320.399 160.555 318.986 160.486 317.346 160.076C315.705 159.666 313.905 158.595 311.945 156.863C310.578 155.678 309.553 154.243 308.869 152.557L307.57 154.539C306.75 155.815 305.406 157.114 303.537 158.436C301.669 159.757 299.891 160.418 298.205 160.418C296.564 160.418 295.243 160.281 294.24 160.008C291.643 159.188 290.344 157.957 290.344 156.316C293.488 153.172 295.653 149.868 296.838 146.404C297.476 144.536 297.932 141.756 298.205 138.064C298.479 134.373 298.638 130.317 298.684 125.896C298.729 121.43 298.706 117.055 298.615 112.771C298.57 108.442 298.501 104.705 298.41 101.561L294.24 109.08C289.911 116.964 287.746 122.661 287.746 126.17C287.746 128.266 288.156 129.93 288.977 131.16C288.84 131.525 288.726 131.775 288.635 131.912C288.452 132.186 288.133 132.413 287.678 132.596C287.313 132.778 286.721 132.915 285.9 133.006C285.126 133.097 284.26 132.938 283.303 132.527C281.48 131.616 280.044 130.18 278.996 128.221C277.173 131.411 275.054 133.006 272.639 133.006C270.223 133.006 268.947 132.391 268.811 131.16C269.813 129.702 270.314 127.697 270.314 125.145C270.314 120.359 268.583 115.005 265.119 109.08L259.582 99.5781C259.491 102.768 259.423 107.007 259.377 112.293C259.331 117.579 259.309 123.937 259.309 131.365C259.309 135.695 259.559 139.34 260.061 142.303C260.607 145.265 261.473 147.84 262.658 150.027C263.889 152.169 265.529 154.266 267.58 156.316L267.307 157.342C267.124 158.025 266.441 158.709 265.256 159.393C263.843 160.213 262.02 160.555 259.787 160.418C257.554 160.281 255.412 159.37 253.361 157.684C252.541 157 251.675 156.089 250.764 154.949C249.852 153.81 249.305 153.012 249.123 152.557C248.166 154.38 246.822 156.089 245.09 157.684C243.723 158.96 242.15 159.78 240.373 160.145C238.641 160.509 236.91 160.464 235.178 160.008Z" fill="white"/>
<path d="M334.025 160.418C330.835 160.418 329.24 159.233 329.24 156.863V156.385C331.701 154.38 333.752 152.352 335.393 150.301C337.079 148.25 338.537 145.789 339.768 142.918C341.044 140.047 342.274 136.447 343.459 132.117L347.014 119.607C344.188 120.291 341.704 121.476 339.562 123.162C339.107 123.162 338.674 122.82 338.264 122.137C337.899 121.453 337.717 120.633 337.717 119.676C337.717 117.534 339.312 115.643 342.502 114.002C341.636 113.729 340.816 113.159 340.041 112.293C338.492 110.789 337.717 109.536 337.717 108.533C337.717 107.029 337.922 105.958 338.332 105.32C338.697 104.819 339.107 104.546 339.562 104.5C342.297 106.642 345.806 108.032 350.09 108.67L358.02 80.6426C359.797 74.3535 360.686 69.3405 360.686 65.6035C360.686 61.8665 359.478 58.1068 357.062 54.3242V54.0508C357.062 51.4987 359.637 50.2227 364.787 50.2227C367.43 50.2227 370.301 51.9089 373.4 55.2812C373.765 55.6458 374.107 56.0788 374.426 56.5801C374.79 57.0358 375.155 57.5371 375.52 58.084C376.841 54.8027 379.439 52.4557 383.312 51.043C386.275 50.0404 388.553 49.8581 390.148 50.4961C391.789 51.1341 392.86 52.4102 393.361 54.3242C392.04 58.1979 391.379 62.5501 391.379 67.3809C391.379 72.3027 391.789 76.6777 392.609 80.5059C393.43 84.334 394.455 87.9342 395.686 91.3066C396.962 94.6335 398.169 97.0716 399.309 98.6211C400.311 100.079 401.337 101.287 402.385 102.244C403.251 103.019 403.98 103.657 404.572 104.158C405.21 104.614 405.529 105.07 405.529 105.525C405.529 105.936 405.347 106.391 404.982 106.893C404.618 107.348 404.208 107.827 403.752 108.328C402.567 109.741 401.975 112.475 401.975 116.531C401.975 121.635 402.704 126.808 404.162 132.049C405.62 137.29 407.557 142.052 409.973 146.336C412.434 150.62 415.077 153.969 417.902 156.385V156.658C417.902 159.165 415.646 160.418 411.135 160.418C406.623 160.418 402.066 158.025 397.463 153.24C395.093 158.025 391.424 160.418 386.457 160.418C383.905 160.418 382.128 160.099 381.125 159.461C379.667 158.322 378.732 157.296 378.322 156.385C381.193 152.876 382.629 148.478 382.629 143.191C382.629 138.497 382.333 135.125 381.74 133.074C381.011 130.477 380.282 127.97 379.553 125.555C378.869 123.094 378.208 120.701 377.57 118.377L361.438 118.445L360.002 124.119C359.318 126.854 358.84 128.859 358.566 130.135C357.655 134.282 357.199 138.224 357.199 141.961C357.199 147.84 358.863 152.648 362.189 156.385C361.916 156.886 361.711 157.319 361.574 157.684C361.438 158.048 361.096 158.504 360.549 159.051C359.273 160.19 357.587 160.6 355.49 160.281C353.439 160.008 351.822 159.21 350.637 157.889C349.224 156.43 348.29 154.881 347.834 153.24C345.965 155.109 343.687 156.772 340.998 158.23C338.309 159.689 335.985 160.418 334.025 160.418ZM363.625 109.285H375.383C373.56 101.811 372.147 96.0462 371.145 91.9902C370.142 87.9342 369.595 85.5872 369.504 84.9492L363.625 109.285Z" fill="white"/>
<path d="M484.963 161.375C481.454 161.375 478.514 160.418 476.145 158.504C473.775 156.59 472.066 154.106 471.018 151.053C469.924 147.954 469.104 144.581 468.557 140.936C467.873 136.743 467.44 133.097 467.258 129.998C467.121 126.854 466.802 123.458 466.301 119.812C465.298 112.931 462.974 109.49 459.328 109.49H450.168V130.682C450.168 135.148 450.396 138.908 450.852 141.961C451.353 144.969 452.15 147.589 453.244 149.822C454.338 152.055 455.842 154.22 457.756 156.316C457.756 158.048 456.503 159.279 453.996 160.008C452.264 160.464 450.441 160.509 448.527 160.145C446.613 159.78 444.927 159.028 443.469 157.889C441.555 156.43 440.119 154.881 439.162 153.24C438.934 153.696 438.365 154.448 437.453 155.496C436.587 156.499 435.744 157.319 434.924 157.957C432.691 159.598 430.458 160.418 428.225 160.418C426.174 160.418 424.51 160.099 423.234 159.461C421.958 158.823 421.206 158.117 420.979 157.342L420.705 156.316C423.485 153.764 425.536 150.506 426.857 146.541C428.225 142.576 428.977 138.247 429.113 133.553C429.296 128.813 428.999 124.074 428.225 119.334C427.723 116.144 426.926 113.683 425.832 111.951C424.784 110.174 423.804 108.807 422.893 107.85C421.981 106.847 421.525 105.958 421.525 105.184C421.525 104.773 421.776 104.318 422.277 103.816C422.779 103.315 423.394 102.632 424.123 101.766C424.898 100.854 425.65 99.5781 426.379 97.9375C428.111 94.0638 428.977 88.1849 428.977 80.3008C428.977 75.0143 428.703 70.8444 428.156 67.791C427.655 64.6921 426.812 62.14 425.627 60.1348C424.442 58.1296 422.801 56.1699 420.705 54.2559C420.705 52.5697 421.958 51.362 424.465 50.6328C426.105 50.1771 428.042 50.1087 430.275 50.4277C432.508 50.7467 434.536 51.4987 436.359 52.6836C438.41 54.0052 440.096 55.4635 441.418 57.0586C442.01 55.418 443.605 53.9368 446.203 52.6152C448.664 51.3392 451.512 50.5872 454.748 50.3594C458.029 50.0859 461.174 50.0859 464.182 50.3594C467.189 50.5872 469.514 50.8379 471.154 51.1113C477.079 52.1595 481.431 54.4154 484.211 57.8789C486.307 60.431 487.515 63.1654 487.834 66.082C488.107 68.5885 488.518 70.6393 489.064 72.2344C489.657 73.7839 490.272 74.946 490.91 75.7207C492.414 77.3613 493.166 78.2956 493.166 78.5234C493.166 78.7969 492.915 79.2298 492.414 79.8223C491.958 80.3691 491.457 81.0299 490.91 81.8047C489.452 83.901 488.54 86.7493 488.176 90.3496C487.857 93.9043 486.695 96.8438 484.689 99.168C482.73 101.492 480.269 102.791 477.307 103.064C482.639 104.842 486.171 108.647 487.902 114.48C488.814 117.853 489.566 122.479 490.158 128.357C490.477 131.32 490.773 133.895 491.047 136.082C491.32 138.27 491.594 140.092 491.867 141.551C493.098 148.022 495.923 152.648 500.344 155.428C496.47 159.393 491.343 161.375 484.963 161.375ZM450.168 98.8262C455.546 98.8262 459.51 98.2337 462.062 97.0488C464.615 95.8184 465.891 93.8587 465.891 91.1699V67.9961C465.891 66.8112 465.23 65.7174 463.908 64.7148C462.587 63.7122 460.969 63.2109 459.055 63.2109C457.095 63.2109 455.113 63.5755 453.107 64.3047C451.148 65.0339 450.168 65.8086 450.168 66.6289V98.8262Z" fill="white"/>
<path d="M539.514 163.357C530.171 163.357 522.857 160.646 517.57 155.223C512.284 149.754 509.641 141.323 509.641 129.93C509.641 119.266 508.046 112.111 504.855 108.465C504.491 108.009 504.126 107.622 503.762 107.303C503.443 106.984 503.169 106.71 502.941 106.482C502.44 105.981 502.189 105.548 502.189 105.184C502.189 104.819 502.44 104.432 502.941 104.021C503.443 103.657 504.058 103.087 504.787 102.312C505.562 101.538 506.314 100.49 507.043 99.168C508.775 95.9323 509.641 90.2357 509.641 82.0781C509.641 59.7474 519.986 48.582 540.676 48.582C549.016 48.582 555.692 50.8835 560.705 55.4863C564.898 59.4056 566.994 65.1022 566.994 72.5762C566.994 83.1491 568.771 90.623 572.326 94.998C572.189 95.5449 571.734 96.0462 570.959 96.502C570.23 96.9577 569.25 97.1855 568.02 97.1855C565.604 97.1855 563.371 96.6615 561.32 95.6133C559.27 94.5195 557.72 93.4714 556.672 92.4688C556.353 92.1497 555.738 92.3092 554.826 92.9473C553.96 93.5853 552.798 94.2689 551.34 94.998C549.882 95.7272 548.127 96.0918 546.076 96.0918C541.838 96.0918 539.719 95.1803 539.719 93.3574C539.719 93.1751 540.129 92.446 540.949 91.1699L543.479 86.9316C545.985 82.7389 547.238 78.1589 547.238 73.1914C547.238 67.4492 546.145 63.9401 543.957 62.6641C543.228 62.2083 541.975 61.9349 540.197 61.8438C538.465 61.707 536.757 62.0944 535.07 63.0059C533.384 63.8717 532.199 65.5807 531.516 68.1328C530.923 70.0469 530.627 73.0319 530.627 77.0879C530.627 79.0931 530.673 81.0072 530.764 82.8301C530.855 84.653 530.992 86.362 531.174 87.957C531.538 91.1471 532.017 93.6081 532.609 95.3398C533.794 98.8945 534.979 101.128 536.164 102.039C538.169 103.589 538.579 104.865 537.395 105.867C536.893 106.323 536.255 107.007 535.48 107.918C534.751 108.829 534.022 110.06 533.293 111.609C531.561 115.346 530.695 121.476 530.695 129.998V134.168C530.695 140.32 531.265 144.331 532.404 146.199C533.407 147.885 534.318 148.911 535.139 149.275C538.785 150.87 541.77 150.939 544.094 149.48C546.236 148.159 547.307 144.445 547.307 138.338C547.307 126.58 544.937 120.382 540.197 119.744C540.197 117.876 541.428 116.577 543.889 115.848C544.937 115.574 546.145 115.438 547.512 115.438C550.383 115.438 553.049 116.759 555.51 119.402C558.335 116.896 560.751 115.369 562.756 114.822C564.761 114.321 566.311 114.07 567.404 114.07C569.637 114.07 570.982 114.617 571.438 115.711L571.643 116.189C569.774 118.696 568.566 121.681 568.02 125.145C567.518 128.608 567.268 132.687 567.268 137.381C567.268 142.12 566.63 145.971 565.354 148.934C564.077 151.987 562.482 154.402 560.568 156.18C558.654 157.911 556.398 159.347 553.801 160.486C549.426 162.4 544.663 163.357 539.514 163.357Z" fill="white"/>
<path d="M618.332 160.418C616.646 160.418 614.868 159.757 613 158.436C611.177 157.114 609.855 155.815 609.035 154.539L607.873 152.557C606.597 155.792 604.25 158.139 600.832 159.598C599.009 160.327 597.095 160.577 595.09 160.35C593.13 160.167 591.763 159.712 590.988 158.982C589.986 158.117 589.416 157.228 589.279 156.316C592.378 153.354 594.543 150.05 595.773 146.404C596.594 143.943 597.118 141.049 597.346 137.723C597.619 134.35 597.688 131.023 597.551 127.742C597.414 124.461 597.163 121.658 596.799 119.334C596.298 115.916 595.5 113.387 594.406 111.746C593.358 110.105 592.378 108.875 591.467 108.055C590.555 107.189 590.1 106.277 590.1 105.32C590.1 104.956 590.35 104.523 590.852 104.021C591.353 103.566 591.968 102.882 592.697 101.971C593.472 101.059 594.224 99.806 594.953 98.2109C596.685 94.474 597.551 88.9596 597.551 81.668C597.551 74.3763 597.277 70.0924 596.73 68.8164C596.73 68.6341 594.725 68.543 590.715 68.543C586.704 68.543 583.97 68.9303 582.512 69.7051C581.053 70.4342 579.686 71.6419 578.41 73.3281C576.587 72.8724 575.676 71.3685 575.676 68.8164C575.676 66.2643 576.952 63.9173 579.504 61.7754C577.954 60.6361 576.861 59.2461 576.223 57.6055C575.63 55.9648 575.516 54.4382 575.881 53.0254C576.245 51.5671 577.089 50.6328 578.41 50.2227C581.965 52.4102 585.542 53.5039 589.143 53.5039C590.601 53.5039 592.515 52.957 594.885 51.8633C597.3 50.7695 599.077 50.2227 600.217 50.2227C603.133 50.2227 605.686 52.0911 607.873 55.8281C609.969 52.0911 612.476 50.2227 615.393 50.2227C616.623 50.2227 618.423 50.7695 620.793 51.8633C623.208 52.957 625.1 53.5039 626.467 53.5039C629.93 53.5039 633.508 52.4102 637.199 50.2227C638.293 50.2227 639.09 51.0885 639.592 52.8203C639.774 53.3672 639.865 54.1875 639.865 55.2812C639.865 56.2839 639.523 57.3776 638.84 58.5625C637.792 60.3398 636.835 61.4108 635.969 61.7754C638.02 63.0514 639.227 64.806 639.592 67.0391C640.002 69.2721 639.797 70.9811 638.977 72.166C638.566 72.7129 637.974 73.1003 637.199 73.3281C634.419 70.138 630.591 68.543 625.715 68.543L618.674 68.8164C618.127 69.3633 617.854 72.3711 617.854 77.8398C617.854 83.1719 618.104 87.5469 618.605 90.9648C619.107 94.2917 619.882 96.821 620.93 98.5527C622.023 100.285 623.026 101.606 623.938 102.518C624.849 103.429 625.305 104.34 625.305 105.252C625.305 106.391 624.576 107.553 623.117 108.738C621.704 109.878 620.588 111.655 619.768 114.07C618.492 117.762 617.854 123.185 617.854 130.34C617.854 135.079 618.104 139.021 618.605 142.166C619.152 145.265 620.018 147.908 621.203 150.096C622.434 152.238 624.074 154.311 626.125 156.316C626.125 157.957 624.849 159.188 622.297 160.008C621.34 160.281 620.018 160.418 618.332 160.418Z" fill="white"/>
<path d="M643.557 160.418C640.367 160.418 638.771 159.233 638.771 156.863V156.385C641.232 154.38 643.283 152.352 644.924 150.301C646.61 148.25 648.068 145.789 649.299 142.918C650.575 140.047 651.805 136.447 652.99 132.117L656.545 119.607C653.719 120.291 651.236 121.476 649.094 123.162C648.638 123.162 648.205 122.82 647.795 122.137C647.43 121.453 647.248 120.633 647.248 119.676C647.248 117.534 648.843 115.643 652.033 114.002C651.167 113.729 650.347 113.159 649.572 112.293C648.023 110.789 647.248 109.536 647.248 108.533C647.248 107.029 647.453 105.958 647.863 105.32C648.228 104.819 648.638 104.546 649.094 104.5C651.828 106.642 655.337 108.032 659.621 108.67L667.551 80.6426C669.328 74.3535 670.217 69.3405 670.217 65.6035C670.217 61.8665 669.009 58.1068 666.594 54.3242V54.0508C666.594 51.4987 669.169 50.2227 674.318 50.2227C676.962 50.2227 679.833 51.9089 682.932 55.2812C683.296 55.6458 683.638 56.0788 683.957 56.5801C684.322 57.0358 684.686 57.5371 685.051 58.084C686.372 54.8027 688.97 52.4557 692.844 51.043C695.806 50.0404 698.085 49.8581 699.68 50.4961C701.32 51.1341 702.391 52.4102 702.893 54.3242C701.571 58.1979 700.91 62.5501 700.91 67.3809C700.91 72.3027 701.32 76.6777 702.141 80.5059C702.961 84.334 703.986 87.9342 705.217 91.3066C706.493 94.6335 707.701 97.0716 708.84 98.6211C709.842 100.079 710.868 101.287 711.916 102.244C712.782 103.019 713.511 103.657 714.104 104.158C714.742 104.614 715.061 105.07 715.061 105.525C715.061 105.936 714.878 106.391 714.514 106.893C714.149 107.348 713.739 107.827 713.283 108.328C712.098 109.741 711.506 112.475 711.506 116.531C711.506 121.635 712.235 126.808 713.693 132.049C715.152 137.29 717.089 142.052 719.504 146.336C721.965 150.62 724.608 153.969 727.434 156.385V156.658C727.434 159.165 725.178 160.418 720.666 160.418C716.154 160.418 711.597 158.025 706.994 153.24C704.624 158.025 700.956 160.418 695.988 160.418C693.436 160.418 691.659 160.099 690.656 159.461C689.198 158.322 688.264 157.296 687.854 156.385C690.725 152.876 692.16 148.478 692.16 143.191C692.16 138.497 691.864 135.125 691.271 133.074C690.542 130.477 689.813 127.97 689.084 125.555C688.4 123.094 687.74 120.701 687.102 118.377L670.969 118.445L669.533 124.119C668.85 126.854 668.371 128.859 668.098 130.135C667.186 134.282 666.73 138.224 666.73 141.961C666.73 147.84 668.394 152.648 671.721 156.385C671.447 156.886 671.242 157.319 671.105 157.684C670.969 158.048 670.627 158.504 670.08 159.051C668.804 160.19 667.118 160.6 665.021 160.281C662.971 160.008 661.353 159.21 660.168 157.889C658.755 156.43 657.821 154.881 657.365 153.24C655.497 155.109 653.218 156.772 650.529 158.23C647.84 159.689 645.516 160.418 643.557 160.418ZM673.156 109.285H684.914C683.091 101.811 681.678 96.0462 680.676 91.9902C679.673 87.9342 679.126 85.5872 679.035 84.9492L673.156 109.285Z" fill="white"/>
<path d="M769.406 160.418C767.72 160.418 765.943 159.757 764.074 158.436C762.251 157.114 760.93 155.815 760.109 154.539L758.947 152.557C757.671 155.792 755.324 158.139 751.906 159.598C750.083 160.327 748.169 160.577 746.164 160.35C744.204 160.167 742.837 159.712 742.062 158.982C741.06 158.117 740.49 157.228 740.354 156.316C743.452 153.354 745.617 150.05 746.848 146.404C747.668 143.943 748.192 141.049 748.42 137.723C748.693 134.35 748.762 131.023 748.625 127.742C748.488 124.461 748.238 121.658 747.873 119.334C747.372 115.916 746.574 113.387 745.48 111.746C744.432 110.105 743.452 108.875 742.541 108.055C741.63 107.189 741.174 106.277 741.174 105.32C741.174 104.956 741.424 104.523 741.926 104.021C742.427 103.566 743.042 102.882 743.771 101.971C744.546 101.059 745.298 99.806 746.027 98.2109C747.759 94.474 748.625 88.9596 748.625 81.668C748.625 74.3763 748.352 70.0924 747.805 68.8164C747.805 68.6341 745.799 68.543 741.789 68.543C737.779 68.543 735.044 68.9303 733.586 69.7051C732.128 70.4342 730.76 71.6419 729.484 73.3281C727.661 72.8724 726.75 71.3685 726.75 68.8164C726.75 66.2643 728.026 63.9173 730.578 61.7754C729.029 60.6361 727.935 59.2461 727.297 57.6055C726.704 55.9648 726.59 54.4382 726.955 53.0254C727.32 51.5671 728.163 50.6328 729.484 50.2227C733.039 52.4102 736.617 53.5039 740.217 53.5039C741.675 53.5039 743.589 52.957 745.959 51.8633C748.374 50.7695 750.152 50.2227 751.291 50.2227C754.208 50.2227 756.76 52.0911 758.947 55.8281C761.044 52.0911 763.55 50.2227 766.467 50.2227C767.697 50.2227 769.497 50.7695 771.867 51.8633C774.283 52.957 776.174 53.5039 777.541 53.5039C781.005 53.5039 784.582 52.4102 788.273 50.2227C789.367 50.2227 790.165 51.0885 790.666 52.8203C790.848 53.3672 790.939 54.1875 790.939 55.2812C790.939 56.2839 790.598 57.3776 789.914 58.5625C788.866 60.3398 787.909 61.4108 787.043 61.7754C789.094 63.0514 790.301 64.806 790.666 67.0391C791.076 69.2721 790.871 70.9811 790.051 72.166C789.641 72.7129 789.048 73.1003 788.273 73.3281C785.493 70.138 781.665 68.543 776.789 68.543L769.748 68.8164C769.201 69.3633 768.928 72.3711 768.928 77.8398C768.928 83.1719 769.178 87.5469 769.68 90.9648C770.181 94.2917 770.956 96.821 772.004 98.5527C773.098 100.285 774.1 101.606 775.012 102.518C775.923 103.429 776.379 104.34 776.379 105.252C776.379 106.391 775.65 107.553 774.191 108.738C772.779 109.878 771.662 111.655 770.842 114.07C769.566 117.762 768.928 123.185 768.928 130.34C768.928 135.079 769.178 139.021 769.68 142.166C770.227 145.265 771.092 147.908 772.277 150.096C773.508 152.238 775.148 154.311 777.199 156.316C777.199 157.957 775.923 159.188 773.371 160.008C772.414 160.281 771.092 160.418 769.406 160.418Z" fill="white"/>
<path d="M834.211 160.418C832.525 160.418 830.747 159.757 828.879 158.436C827.056 157.114 825.734 155.815 824.914 154.539L823.752 152.557C822.476 155.792 820.129 158.139 816.711 159.598C814.888 160.327 812.974 160.577 810.969 160.35C809.009 160.167 807.642 159.712 806.867 158.982C805.865 158.117 805.295 157.228 805.158 156.316C808.257 153.354 810.422 150.05 811.652 146.404C812.473 143.943 812.997 141.049 813.225 137.723C813.498 134.35 813.566 131.023 813.43 127.742C813.293 124.461 813.042 121.658 812.678 119.334C812.176 115.916 811.379 113.387 810.285 111.746C809.237 110.105 808.257 108.875 807.346 108.055C806.434 107.189 805.979 106.277 805.979 105.32C805.979 104.956 806.229 104.523 806.73 104.021C807.232 103.566 807.847 102.882 808.576 101.971C809.351 101.059 810.103 99.806 810.832 98.2109C812.564 94.474 813.43 88.9596 813.43 81.668C813.43 74.3763 813.156 70.0924 812.609 68.8164C812.609 68.6341 810.604 68.543 806.594 68.543C802.583 68.543 799.849 68.9303 798.391 69.7051C796.932 70.4342 795.565 71.6419 794.289 73.3281C792.466 72.8724 791.555 71.3685 791.555 68.8164C791.555 66.2643 792.831 63.9173 795.383 61.7754C793.833 60.6361 792.74 59.2461 792.102 57.6055C791.509 55.9648 791.395 54.4382 791.76 53.0254C792.124 51.5671 792.967 50.6328 794.289 50.2227C797.844 52.4102 801.421 53.5039 805.021 53.5039C806.48 53.5039 808.394 52.957 810.764 51.8633C813.179 50.7695 814.956 50.2227 816.096 50.2227C819.012 50.2227 821.564 52.0911 823.752 55.8281C825.848 52.0911 828.355 50.2227 831.271 50.2227C832.502 50.2227 834.302 50.7695 836.672 51.8633C839.087 52.957 840.979 53.5039 842.346 53.5039C845.809 53.5039 849.387 52.4102 853.078 50.2227C854.172 50.2227 854.969 51.0885 855.471 52.8203C855.653 53.3672 855.744 54.1875 855.744 55.2812C855.744 56.2839 855.402 57.3776 854.719 58.5625C853.671 60.3398 852.714 61.4108 851.848 61.7754C853.898 63.0514 855.106 64.806 855.471 67.0391C855.881 69.2721 855.676 70.9811 854.855 72.166C854.445 72.7129 853.853 73.1003 853.078 73.3281C850.298 70.138 846.47 68.543 841.594 68.543L834.553 68.8164C834.006 69.3633 833.732 72.3711 833.732 77.8398C833.732 83.1719 833.983 87.5469 834.484 90.9648C834.986 94.2917 835.76 96.821 836.809 98.5527C837.902 100.285 838.905 101.606 839.816 102.518C840.728 103.429 841.184 104.34 841.184 105.252C841.184 106.391 840.454 107.553 838.996 108.738C837.583 109.878 836.467 111.655 835.646 114.07C834.37 117.762 833.732 123.185 833.732 130.34C833.732 135.079 833.983 139.021 834.484 142.166C835.031 145.265 835.897 147.908 837.082 150.096C838.312 152.238 839.953 154.311 842.004 156.316C842.004 157.957 840.728 159.188 838.176 160.008C837.219 160.281 835.897 160.418 834.211 160.418Z" fill="white"/>
<path d="M898.674 163.357C893.433 163.357 888.898 162.742 885.07 161.512C881.242 160.327 877.938 158.367 875.158 155.633C869.644 150.255 866.887 141.118 866.887 128.221C866.887 117.283 864.357 110.083 859.299 106.619C858.524 106.072 858.319 105.617 858.684 105.252C859.094 104.887 859.8 104.318 860.803 103.543C861.805 102.723 862.831 101.424 863.879 99.6465C865.884 96.1374 866.887 91.3522 866.887 85.291C866.887 79.1842 867.183 74.2852 867.775 70.5938C868.413 66.9023 869.37 63.8034 870.646 61.2969C871.923 58.7448 873.404 56.6484 875.09 55.0078C876.822 53.3216 878.941 52 881.447 51.043C883.954 50.1315 886.551 49.4935 889.24 49.1289C891.975 48.7643 895.142 48.582 898.742 48.582C902.342 48.582 905.487 48.7643 908.176 49.1289C910.865 49.4935 913.462 50.1315 915.969 51.043C918.475 52 920.572 53.3216 922.258 55.0078C923.944 56.694 925.425 58.7904 926.701 61.2969C929.208 66.2643 930.461 73.6243 930.461 83.377C930.461 93.9499 932.694 101.128 937.16 104.91C937.707 105.32 937.98 105.594 937.98 105.73C937.98 105.913 937.684 106.232 937.092 106.688C936.499 107.143 935.907 107.713 935.314 108.396C934.722 109.035 933.993 110.151 933.127 111.746C931.35 115.027 930.461 121.18 930.461 130.203C930.461 135.307 929.777 140.161 928.41 144.764C927.043 149.321 924.969 152.944 922.189 155.633C919.41 158.367 916.105 160.327 912.277 161.512C908.449 162.742 903.915 163.357 898.674 163.357ZM901.135 148.045C903.368 147.635 904.895 146.541 905.715 144.764C906.854 142.348 907.469 139.728 907.561 136.902C907.652 134.077 907.697 132.208 907.697 131.297V127.469C907.697 118.901 906.444 112.612 903.938 108.602C903.345 107.645 902.867 106.984 902.502 106.619C902.092 106.255 901.887 105.958 901.887 105.73C901.887 105.366 902.206 104.842 902.844 104.158C903.527 103.475 904.188 102.632 904.826 101.629C905.51 100.535 906.148 98.3249 906.74 94.998C907.378 91.6712 907.697 88.2077 907.697 84.6074C907.697 82.1921 907.697 80.3691 907.697 79.1387C907.697 77.9082 907.674 76.8828 907.629 76.0625C907.629 75.2422 907.606 74.2852 907.561 73.1914C907.378 69.5 906.9 67.0391 906.125 65.8086C905.396 64.5781 904.621 63.6667 903.801 63.0742C902.798 62.2539 901.34 61.8438 899.426 61.8438C897.512 61.8438 896.031 61.9805 894.982 62.2539C893.843 62.6185 893 63.2109 892.453 64.0312C891.77 64.8971 891.245 65.763 890.881 66.6289C890.516 67.4492 890.243 68.8164 890.061 70.7305C889.969 71.9154 889.878 73.3965 889.787 75.1738C889.742 76.9512 889.719 79.0475 889.719 81.4629C889.719 86.248 889.924 90.1217 890.334 93.084C890.699 96.0007 891.177 98.1882 891.77 99.6465C892.544 101.606 893.342 103.042 894.162 103.953C895.028 104.865 895.461 105.457 895.461 105.73C895.461 106.049 895.028 106.756 894.162 107.85C893.342 108.898 892.544 110.47 891.77 112.566C890.448 116.121 889.787 120.906 889.787 126.922V132.049C889.787 137.882 890.038 141.346 890.539 142.439L891.701 144.969C892.02 145.652 892.385 146.154 892.795 146.473C893.251 146.746 893.775 147.065 894.367 147.43C895.962 148.387 898.218 148.592 901.135 148.045Z" fill="white"/>
<path d="M983.576 163.357C978.335 163.357 973.801 162.742 969.973 161.512C966.145 160.327 962.84 158.367 960.061 155.633C954.546 150.255 951.789 141.118 951.789 128.221C951.789 117.283 949.26 110.083 944.201 106.619C943.426 106.072 943.221 105.617 943.586 105.252C943.996 104.887 944.702 104.318 945.705 103.543C946.708 102.723 947.733 101.424 948.781 99.6465C950.786 96.1374 951.789 91.3522 951.789 85.291C951.789 79.1842 952.085 74.2852 952.678 70.5938C953.316 66.9023 954.273 63.8034 955.549 61.2969C956.825 58.7448 958.306 56.6484 959.992 55.0078C961.724 53.3216 963.843 52 966.35 51.043C968.856 50.1315 971.454 49.4935 974.143 49.1289C976.877 48.7643 980.044 48.582 983.645 48.582C987.245 48.582 990.389 48.7643 993.078 49.1289C995.767 49.4935 998.365 50.1315 1000.87 51.043C1003.38 52 1005.47 53.3216 1007.16 55.0078C1008.85 56.694 1010.33 58.7904 1011.6 61.2969C1014.11 66.2643 1015.36 73.6243 1015.36 83.377C1015.36 93.9499 1017.6 101.128 1022.06 104.91C1022.61 105.32 1022.88 105.594 1022.88 105.73C1022.88 105.913 1022.59 106.232 1021.99 106.688C1021.4 107.143 1020.81 107.713 1020.22 108.396C1019.62 109.035 1018.9 110.151 1018.03 111.746C1016.25 115.027 1015.36 121.18 1015.36 130.203C1015.36 135.307 1014.68 140.161 1013.31 144.764C1011.95 149.321 1009.87 152.944 1007.09 155.633C1004.31 158.367 1001.01 160.327 997.18 161.512C993.352 162.742 988.817 163.357 983.576 163.357ZM986.037 148.045C988.27 147.635 989.797 146.541 990.617 144.764C991.757 142.348 992.372 139.728 992.463 136.902C992.554 134.077 992.6 132.208 992.6 131.297V127.469C992.6 118.901 991.346 112.612 988.84 108.602C988.247 107.645 987.769 106.984 987.404 106.619C986.994 106.255 986.789 105.958 986.789 105.73C986.789 105.366 987.108 104.842 987.746 104.158C988.43 103.475 989.09 102.632 989.729 101.629C990.412 100.535 991.05 98.3249 991.643 94.998C992.281 91.6712 992.6 88.2077 992.6 84.6074C992.6 82.1921 992.6 80.3691 992.6 79.1387C992.6 77.9082 992.577 76.8828 992.531 76.0625C992.531 75.2422 992.508 74.2852 992.463 73.1914C992.281 69.5 991.802 67.0391 991.027 65.8086C990.298 64.5781 989.523 63.6667 988.703 63.0742C987.701 62.2539 986.242 61.8438 984.328 61.8438C982.414 61.8438 980.933 61.9805 979.885 62.2539C978.745 62.6185 977.902 63.2109 977.355 64.0312C976.672 64.8971 976.148 65.763 975.783 66.6289C975.419 67.4492 975.145 68.8164 974.963 70.7305C974.872 71.9154 974.781 73.3965 974.689 75.1738C974.644 76.9512 974.621 79.0475 974.621 81.4629C974.621 86.248 974.826 90.1217 975.236 93.084C975.601 96.0007 976.079 98.1882 976.672 99.6465C977.447 101.606 978.244 103.042 979.064 103.953C979.93 104.865 980.363 105.457 980.363 105.73C980.363 106.049 979.93 106.756 979.064 107.85C978.244 108.898 977.447 110.47 976.672 112.566C975.35 116.121 974.689 120.906 974.689 126.922V132.049C974.689 137.882 974.94 141.346 975.441 142.439L976.604 144.969C976.923 145.652 977.287 146.154 977.697 146.473C978.153 146.746 978.677 147.065 979.27 147.43C980.865 148.387 983.12 148.592 986.037 148.045Z" fill="white"/>
<path d="M208.39 59.0298L189.599 93.4959H172.992V99.4383H131.074V93.4316C131.013 93.4316 130.953 93.4316 130.893 93.4316C124.426 93.4316 119.189 88.1898 119.189 81.7231V81.6113H113.214V39.6931H119.189C119.189 39.4359 119.189 39.2756 119.189 39.2756C119.189 35.3886 119.221 30.7635 119.221 25.3028L153.301 5.3877C155.518 4.13465 158.248 5.70859 158.248 8.24616V54.1474H205.498C207.972 54.1474 209.578 56.8131 208.39 59.0298ZM205.51 157.835H158.249V203.768C158.249 206.305 155.518 207.879 153.302 206.594L119.221 186.679C119.221 181.219 119.189 176.625 119.189 172.738C119.189 172.738 119.189 172.546 119.189 172.321H113.215V130.403H119.189V130.259C119.189 123.792 124.427 118.55 130.894 118.55C130.954 118.55 131.014 118.55 131.074 118.55V112.543H172.993V118.518H189.599L208.39 152.984C209.581 155.17 207.999 157.835 205.51 157.835ZM92.81 39.7009H98.7524V81.619H92.81V81.7308C92.81 88.1975 87.5726 93.4393 81.1057 93.4393C81.0456 93.4393 80.9852 93.4393 80.9248 93.4393V99.4463H39.0067V93.5036H22.4L3.60908 59.0375C2.4206 56.8215 3.99454 54.1551 6.49999 54.1551H53.7182V8.25387C53.7182 5.71662 56.4806 4.14268 58.6648 5.39541L92.7454 25.3106C92.7454 30.7712 92.8097 35.3966 92.8097 39.2836C92.81 39.2839 92.81 39.4442 92.81 39.7009ZM98.7598 130.403V172.321H92.8174C92.8174 172.546 92.8174 172.739 92.8174 172.739C92.8174 176.626 92.7531 181.219 92.7531 186.679L58.6725 206.595C56.4883 207.879 53.7259 206.306 53.7259 203.768V157.835H6.49678C4.00706 157.835 2.42509 155.17 3.61679 152.984L22.4077 118.518H39.0144V112.543H80.9325V118.55C80.9929 118.55 81.0533 118.55 81.1134 118.55C87.58 118.55 92.8177 123.793 92.8177 130.259V130.403L98.7598 130.403Z" fill="white"/>
</svg>
