<svg width="102" height="84" viewBox="0 0 102 84" fill="none" xmlns="http://www.w3.org/2000/svg">
<g clip-path="url(#clip0)">
<path d="M0 13H23.8V20H0V13ZM0 0H23.8V7H0V0ZM42.7 25.9H0V32.9H41.1C45.6 32.9 56.1 33 60 39.3V35.4C58.1 29.2 52.5 25.9 42.7 25.9ZM42.8 38.9H0V45.9H41.1C51.1 45.9 57.4 46.3 60 47.7V44.6C58 39.7 49.6 38.9 42.8 38.9V38.9ZM42.7 71.9H0V64.9H41.1C45.6 64.9 56.1 64.8 60 58.5V62.4C58.1 68.6 52.5 71.9 42.7 71.9ZM42.8 58.9H0V51.9H41.1C51.1 51.9 57.4 51.5 60 50.1V53.2C58 58.1 49.6 58.9 42.8 58.9V58.9ZM70.4 84H101.8V79.7H71.3C68.6 79.7 62.2 79.6 59.9 75.9V78.3C61 82 64.4 84 70.4 84V84ZM70.3 76.1H101.7V71.8H71.3C65.2 71.8 61.4 71.6 59.9 70.7V72.6C61.1 75.6 66.2 76.1 70.3 76.1V76.1Z" fill="black"/>
</g>
<defs>
<clipPath id="clip0">
<rect width="101.7" height="84" fill="white"/>
</clipPath>
</defs>
</svg>
