<?xml version="1.0" encoding="UTF-8" standalone="no"?><svg xmlns="http://www.w3.org/2000/svg" xmlns:xlink="http://www.w3.org/1999/xlink" width="48px" height="48px" viewBox="0 0 48 48" version="1.1"><title>Invision-color</title><g id="Icons" stroke="none" stroke-width="1" fill="none" fill-rule="evenodd"><g id="Color-" transform="translate(-400.000000, -260.000000)" fill="#FF2A63"><path d="M443.649 260H404.35a4.351 4.351 0 0 0-4.351 4.351v39.298a4.351 4.351 0 0 0 4.351 4.351h39.298a4.351 4.351 0 0 0 4.351-4.351V264.35a4.351 4.351 0 0 0-4.351-4.351zm-27.607 15.102c1.595 0 2.932-1.25 2.932-2.89 0-1.638-1.337-2.888-2.932-2.888-1.596 0-2.932 1.25-2.932 2.888 0 1.64 1.336 2.89 2.932 2.89zm-6.08 15.473a9.932 9.932 0 0 0-.26 2.17c0 2.545 1.38 4.234 4.313 4.234 2.432 0 4.404-1.444 5.823-3.776l-.867 3.479h4.83l2.76-11.07c.69-2.803 2.026-4.258 4.053-4.258 1.595 0 2.587.992 2.587 2.63 0 .475-.043.992-.216 1.553l-1.423 5.088a7.648 7.648 0 0 0-.301 2.156c0 2.416 1.422 4.182 4.398 4.182 2.544 0 4.57-1.637 5.692-5.562l-1.897-.732c-.95 2.629-1.769 3.104-2.415 3.104-.647 0-.992-.43-.992-1.293 0-.388.086-.818.215-1.337l1.38-4.957c.345-1.164.475-2.196.475-3.145 0-3.708-2.243-5.643-4.96-5.643-2.543 0-5.13 2.294-6.424 4.71l.948-4.335h-7.373l-1.035 3.818h3.45l-2.124 8.505c-1.669 3.708-4.733 3.768-5.118 3.682-.631-.142-1.035-.382-1.035-1.203 0-.473.086-1.153.302-1.973l3.234-12.83h-8.193l-1.035 3.819h3.407l-2.2 8.984z" id="Invision"/></g></g><metadata><rdf:RDF xmlns:rdf="http://www.w3.org/1999/02/22-rdf-syntax-ns#" xmlns:rdfs="http://www.w3.org/2000/01/rdf-schema#" xmlns:dc="http://purl.org/dc/elements/1.1/"><rdf:Description about="https://iconscout.com/legal#licenses" dc:title="invision,color" dc:description="invision,color" dc:publisher="Iconscout" dc:date="2017-09-14" dc:format="image/svg+xml" dc:language="en"><dc:creator><rdf:Bag><rdf:li>Alexis Doreau</rdf:li></rdf:Bag></dc:creator></rdf:Description></rdf:RDF></metadata></svg>