<svg width="20" height="20" viewBox="0 0 20 20" fill="none" xmlns="http://www.w3.org/2000/svg">
<path d="M10.0001 0.599976C8.14096 0.599976 6.32356 1.15128 4.77774 2.18416C3.23192 3.21705 2.0271 4.68513 1.31563 6.40275C0.604171 8.12038 0.418019 10.0104 0.78072 11.8338C1.14342 13.6572 2.03868 15.3322 3.3533 16.6468C4.66791 17.9614 6.34283 18.8567 8.16625 19.2194C9.98967 19.5821 11.8797 19.3959 13.5973 18.6844C15.315 17.973 16.783 16.7682 17.8159 15.2223C18.8488 13.6765 19.4001 11.8591 19.4001 9.99998C19.4001 7.50694 18.4097 5.11601 16.6469 3.35317C14.8841 1.59033 12.4931 0.599976 10.0001 0.599976V0.599976Z" fill="#D8D8FF"/>
<path d="M10.1465 10.7286L7.64575 17.9938C9.32462 18.4882 11.1165 18.4416 12.7675 17.8608C12.7443 17.8244 12.7243 17.7859 12.7078 17.746L10.1465 10.7286ZM1.66675 9.99963C1.66648 11.5646 2.10687 13.098 2.9375 14.4244C3.76814 15.7507 4.95546 16.8164 6.36353 17.4993L2.38818 6.60834C1.91165 7.67538 1.66581 8.83102 1.66675 9.99963V9.99963Z" fill="#6563FF"/>
<path d="M15.6257 9.57941C15.6146 8.76443 15.3767 7.96865 14.9387 7.28125C14.4908 6.7177 14.2075 6.04126 14.1201 5.32672C14.1104 4.94526 14.2522 4.57549 14.5145 4.29833C14.7768 4.02116 15.1381 3.85916 15.5195 3.84778C15.5565 3.84778 15.5915 3.85223 15.6275 3.85449C14.7378 3.03954 13.6817 2.42754 12.5323 2.06081C11.3828 1.69409 10.1675 1.58139 8.97022 1.7305C7.77295 1.87962 6.62236 2.28699 5.598 2.92446C4.57364 3.56192 3.69995 4.41427 3.03735 5.42255C3.23291 5.42877 3.41724 5.43268 3.57361 5.43268C4.44507 5.43268 5.79468 5.32668 5.79468 5.32668C5.88473 5.32147 5.97323 5.35178 6.04117 5.41111C6.10912 5.47043 6.15108 5.55404 6.15805 5.64397C6.16502 5.7339 6.13643 5.82297 6.07844 5.89206C6.02045 5.96115 5.93768 6.00473 5.8479 6.01345C5.8479 6.01345 5.39624 6.06631 4.89429 6.09261L7.92871 15.1191L9.75271 9.6498L8.45435 6.09265C8.00535 6.06635 7.58035 6.01349 7.58035 6.01349C7.49056 6.00482 7.40776 5.96127 7.34973 5.8922C7.2917 5.82313 7.26308 5.73405 7.27002 5.64411C7.27696 5.55417 7.31891 5.47054 7.38685 5.41119C7.45479 5.35184 7.54329 5.32152 7.63335 5.32672C7.63335 5.32672 9.00921 5.43272 9.82793 5.43272C10.6994 5.43272 12.0492 5.32672 12.0492 5.32672C12.1393 5.32145 12.2279 5.35174 12.2959 5.41108C12.3639 5.47042 12.4059 5.55407 12.4128 5.64405C12.4198 5.73402 12.3911 5.82314 12.3331 5.89222C12.275 5.96131 12.1922 6.00485 12.1023 6.01349C12.1023 6.01349 11.6503 6.06635 11.1487 6.09265L14.1602 15.0504L15.0198 12.3264C15.3555 11.4454 15.5597 10.5198 15.6257 9.57941Z" fill="#6563FF"/>
<path d="M10 0C8.02219 0 6.08879 0.58649 4.4443 1.6853C2.79981 2.78412 1.51809 4.3459 0.761209 6.17317C0.00433284 8.00043 -0.193701 10.0111 0.192152 11.9509C0.578004 13.8907 1.53041 15.6725 2.92894 17.0711C4.32746 18.4696 6.10929 19.422 8.0491 19.8079C9.98891 20.1937 11.9996 19.9957 13.8268 19.2388C15.6541 18.4819 17.2159 17.2002 18.3147 15.5557C19.4135 13.9112 20 11.9778 20 10C20 8.68678 19.7413 7.38642 19.2388 6.17317C18.7363 4.95991 17.9997 3.85752 17.0711 2.92893C16.1425 2.00035 15.0401 1.26375 13.8268 0.761205C12.6136 0.258658 11.3132 0 10 0V0ZM17.7949 15.2552C16.7747 16.7668 15.3379 17.95 13.6587 18.6615C12.2183 19.2711 10.6485 19.5111 9.09173 19.3598C7.53501 19.2085 6.04077 18.6706 4.74475 17.795C3.2333 16.7745 2.05009 15.3378 1.33838 13.6587C0.728677 12.2183 0.488594 10.6484 0.639956 9.0917C0.791319 7.53495 1.32933 6.0407 2.20508 4.74477C3.22532 3.23315 4.66211 2.0499 6.34131 1.33844C7.7817 0.728864 9.35156 0.488838 10.9083 0.640166C12.465 0.791494 13.9592 1.32938 15.2553 2.20496C16.7667 3.22542 17.9499 4.66217 18.6616 6.34125C19.2713 7.78161 19.5114 9.35151 19.3601 10.9083C19.2087 12.465 18.6707 13.9593 17.7949 15.2552V15.2552Z" fill="#6563FF"/>
<path d="M17.3688 6.85877C17.3543 7.88553 17.139 8.89953 16.7349 9.84352L14.1897 17.2024C16.0669 16.1104 17.4438 14.3288 18.0271 12.2368C18.6104 10.1448 18.3541 7.90782 17.3127 6.00201C17.3506 6.28602 17.3693 6.57225 17.3688 6.85877Z" fill="#6563FF"/>
</svg>
